<svg xmlns="http://www.w3.org/2000/svg" viewBox="0 0 512 512">
  <defs><linearGradient id="g" x1="0" y1="0" x2="1" y2="1"><stop stop-color="#ffd066"/><stop offset="1" stop-color="#f5a623"/></linearGradient></defs>
  <rect width="512" height="512" rx="116" fill="#11141d"/>
  <path d="M104 136c0-22 18-40 40-40h224c22 0 40 18 40 40v50c-30 0-54 24-54 54s24 54 54 54v82c0 22-18 40-40 40H144c-22 0-40-18-40-40v-82c30 0 54-24 54-54s-24-54-54-54z" fill="url(#g)"/>
  <circle cx="260" cy="206" r="20" fill="#15120d"/>
  <circle cx="326" cy="206" r="20" fill="#15120d"/>
  <path d="M240 270h106v38H240z" fill="#15120d"/>
  <path d="M192 116v280" stroke="#15120d" stroke-width="10" stroke-dasharray="16 16" opacity=".45"/>
</svg>
